<?xml version="1.0" standalone="no"?>
<!DOCTYPE svg PUBLIC "-//W3C//DTD SVG 1.1//EN" "http://www.w3.org/Graphics/SVG/1.1/DTD/svg11.dtd" >
<svg xmlns="http://www.w3.org/2000/svg">
<metadata></metadata>
<defs>
<font id="iaaf_sans_blackregular" horiz-adv-x="980" >
<font-face units-per-em="2048" ascent="1536" descent="-512" />
<missing-glyph horiz-adv-x="432" />
<glyph unicode="&#xfb01;" horiz-adv-x="925" d="M80 0l199 725h-97l64 248h96l31 100q33 115 155 204t285 89h238q-35 -123 -103 -192.5t-151 -69.5q-55 0 -91 -23t-44 -55l-17 -53h434l-262 -973h-303l195 725h-127q-149 -538 -197 -725h-305z" />
<glyph unicode="&#xfb02;" horiz-adv-x="925" d="M82 0l197 725h-99l66 248h94l29 100q32 120 131.5 206.5t244.5 86.5h439l-365 -1366h-305l231 866q-35 -66 -73.5 -102.5t-91.5 -36.5l-195 -727h-303zM645 973h129l39 131h-41q-45 0 -80.5 -42t-46.5 -89z" />
<glyph unicode="&#xfb03;" horiz-adv-x="1388" d="M88 0l195 725h-95l62 248h96l29 90q35 119 133 205t242 86h182q-30 -117 -80 -183t-102 -79q-64 -12 -78 -60l-19 -59h127l23 67q18 54 57.5 108t95.5 101t132.5 76t158.5 29h240q-35 -123 -103 -192.5t-151 -69.5q-108 0 -131 -64l-21 -55h437l-261 -973h-303l193 725 h-129l-193 -725h-305l195 725h-129l-193 -725h-305z" />
<glyph unicode="&#xfb04;" horiz-adv-x="1390" d="M90 0l203 752h-96l63 247h96l23 76q35 119 133 205t242 86h182q-30 -117 -80 -184t-102 -78q-72 -17 -80 -62l-10 -43h124l19 60q36 119 148 213t257 94h416l-368 -1366h-304l240 893q-67 -127 -166 -139l-201 -754h-305l203 752h-131l-201 -752h-305zM1094 999h131 l28 105h-53q-31 0 -59.5 -24t-38.5 -52z" />
<glyph horiz-adv-x="2048" />
<glyph horiz-adv-x="2048" />
<glyph unicode="&#xd;" horiz-adv-x="2048" />
<glyph unicode=" "  horiz-adv-x="432" />
<glyph unicode="&#x09;" horiz-adv-x="432" />
<glyph unicode="&#xa0;" horiz-adv-x="432" />
<glyph unicode="!" horiz-adv-x="534" d="M115 0l75 289h285l-35 -123q-19 -68 -80 -117t-129 -49h-116zM227 395l115 492l49 190q36 125 131 192.5t244 67.5l-125 -469l-147 -473h-267z" />
<glyph unicode="&#x22;" horiz-adv-x="724" d="M268 854l129 485h289l-65 -258q-26 -102 -133.5 -164.5t-219.5 -62.5zM618 854l132 485h288l-67 -258q-28 -103 -134 -165t-219 -62z" />
<glyph unicode="#" horiz-adv-x="1316" d="M135 338q31 114 117.5 198t181.5 91l53 118h-182q31 113 118 197t185 94l39 84q47 102 155 160.5t242 58.5l-131 -303h103l39 84q47 101 155.5 160t241.5 59l-131 -303h170q-29 -113 -113.5 -195t-177.5 -93l-53 -121h182q-31 -115 -119.5 -198t-185.5 -91l-49 -121 q-43 -105 -152 -161t-248 -56l142 338h-103l-49 -121q-43 -104 -151 -160.5t-246 -56.5l141 338h-174zM739 627h103l53 118h-102z" />
<glyph unicode="$" horiz-adv-x="1091" d="M70 371h329q19 -41 61.5 -61.5t129.5 -20.5q105 0 173 43t68 117q0 79 -184 90q-157 8 -252.5 90t-95.5 219q0 130 69 242t185.5 184.5t257.5 93.5q17 54 78 91.5t133 37.5l-33 -123q157 -18 246.5 -115t89.5 -264q0 -25 -2 -43h-334q-14 125 -125 125q-101 0 -169 -45 t-68 -110q0 -75 180 -80q156 -5 255 -92t99 -230q0 -52 -18 -110q-46 -176 -189.5 -284.5t-335.5 -131.5l-4 -17q-15 -55 -77 -94t-136 -39l39 150q-287 41 -370 377z" />
<glyph unicode="%" horiz-adv-x="1640" d="M127 739q0 29 16 103l43 162q26 99 98 179.5t164 123.5t183 43q128 0 208.5 -69.5t80.5 -193.5q0 -41 -17 -100l-41 -162q-42 -160 -169.5 -253t-274.5 -93q-129 0 -210 68.5t-81 191.5zM285 0l977 1186q57 73 149.5 113t190.5 40l-981 -1187v2q-55 -74 -146 -114 t-190 -40zM406 825q-12 -45 4 -71.5t55 -26.5q43 0 82 33t51 82l41 159q6 21 6 43q0 27 -16 42.5t-45 15.5q-44 0 -84.5 -34t-53.5 -83zM961 250q0 50 16 102l43 160q44 161 171 254.5t275 93.5q126 0 206.5 -70t80.5 -192q0 -47 -14 -102l-43 -160q-43 -161 -169.5 -254.5 t-273.5 -93.5q-130 0 -211 69.5t-81 192.5zM1239 336q-12 -45 5 -71.5t54 -26.5q41 0 80 33.5t54 80.5l43 160q12 44 -4 72t-54 28q-46 0 -84 -32.5t-51 -85.5z" />
<glyph unicode="&#x26;" horiz-adv-x="1083" d="M125 291q0 53 18 121q50 192 226 297q-56 59 -56 157q0 38 13 95q55 171 204.5 280t319.5 109h260q-34 -125 -119 -202t-196 -77q-57 0 -106 -38.5t-66 -96.5q-12 -51 11 -83t71 -32h88q43 87 142 145t210 58l-55 -203h182q-24 -90 -99 -172.5t-155 -95.5l-57 -215 q-16 -61 -56.5 -121t-100 -112t-144.5 -84.5t-179 -32.5q-161 0 -258.5 79.5t-97.5 223.5zM438 346q0 -35 19.5 -56.5t56.5 -21.5q54 0 99 29.5t55 73.5l45 178h-82q-61 0 -114.5 -44t-72.5 -106q-6 -24 -6 -53z" />
<glyph unicode="'" horiz-adv-x="368" d="M260 854l131 485h291l-70 -258q-28 -103 -132.5 -165t-219.5 -62z" />
<glyph unicode="(" horiz-adv-x="501" d="M94 63q0 70 29 177l221 829q58 213 170.5 301t298.5 88l-70 -246q-37 -14 -58.5 -53t-45.5 -121l-229 -852q-19 -69 -19 -110q0 -37 31 -68l-60 -225q-135 3 -201.5 79.5t-66.5 200.5z" />
<glyph unicode=")" horiz-adv-x="501" d="M-6 -219l67 246q38 14 59.5 53.5t43.5 120.5l231 852q21 77 21 110q0 8 -1.5 15t-3 11.5t-5.5 11.5t-6 10t-7.5 11t-7.5 11l59 225q135 -4 201 -81t66 -201q0 -76 -27 -179l-223 -827q-56 -214 -168.5 -301.5t-298.5 -87.5z" />
<glyph unicode="*" horiz-adv-x="948" d="M283 946l127 217l233 -96l64 272h235l-82 -264l275 92l12 -229l-281 -76l113 -209l-219 -139l-92 223l-213 -221l-156 146l219 204z" />
<glyph unicode="+" horiz-adv-x="1042" d="M168 385l86 289h276l80 284h289l-78 -284h287l-86 -289h-279l-73 -285h-291l76 285h-287z" />
<glyph unicode="," horiz-adv-x="534" d="M27 -207l147 543h338l-72 -270q-22 -82 -92 -146t-155 -95.5t-166 -31.5z" />
<glyph unicode="-" horiz-adv-x="817" d="M170 401l82 287h653l-78 -287h-657z" />
<glyph unicode="." horiz-adv-x="546" d="M86 0l88 336h338l-37 -139q-22 -82 -94.5 -139.5t-155.5 -57.5h-139z" />
<glyph unicode="/" horiz-adv-x="774" d="M-76 -133l809 1354q70 117 193.5 184.5t255.5 67.5l-809 -1356q-73 -121 -194 -185.5t-255 -64.5z" />
<glyph unicode="0" horiz-adv-x="985" d="M141 289q0 52 19 123l141 534q51 188 199.5 297t322.5 109q150 0 243 -80t93 -223q0 -53 -18 -121l-142 -535q-51 -188 -199.5 -296.5t-322.5 -108.5q-147 0 -241.5 80t-94.5 221zM451 346q0 -37 21.5 -57.5t59.5 -20.5q58 0 102.5 38.5t63.5 105.5l144 530q8 32 8 51 q0 37 -21.5 57.5t-58.5 20.5q-57 0 -105 -40t-65 -105l-141 -531q-8 -32 -8 -49z" />
<glyph unicode="1" horiz-adv-x="681" d="M270 0l285 1061h-248q35 135 118 206.5t198 71.5h309l-359 -1339h-303z" />
<glyph unicode="2" horiz-adv-x="925" d="M12 0l68 262l633 567q76 64 94 136q6 21 6 41q0 63 -82 63q-68 0 -122.5 -47.5t-92.5 -126.5h-289q40 122 102 212.5t136.5 142.5t154 77t164.5 25q157 0 248.5 -76t91.5 -211q0 -52 -16 -121q-26 -89 -79.5 -160t-147.5 -155l-396 -348h445q-32 -117 -123.5 -199 t-188.5 -82h-606z" />
<glyph unicode="3" horiz-adv-x="964" d="M104 289q0 55 25 147h293q-12 -62 -12 -94q0 -74 104 -74q65 0 116.5 40t69.5 110q9 41 9 49q0 39 -27.5 60.5t-79.5 21.5h-98l74 272h77q115 0 150 144q6 21 6 41q0 63 -80 63q-68 0 -122.5 -47.5t-92.5 -126.5h-289q40 122 102 212.5t136.5 142.5t154 77t164.5 25 q155 0 246.5 -78t91.5 -211q0 -41 -14 -109q-52 -194 -168 -268q74 -71 74 -182q0 -50 -17 -111q-55 -189 -207 -297t-329 -108q-158 0 -257.5 75.5t-99.5 225.5z" />
<glyph unicode="4" d="M49 180l74 273l500 649q87 113 235 175t289 62l-668 -868h170l19 76q25 103 132 176.5t230 73.5l-88 -326h117l-78 -291h-117l-47 -180h-295l47 180h-520z" />
<glyph unicode="5" horiz-adv-x="991" d="M162 276q0 65 16 150h277q-15 -78 -15 -92q0 -33 21 -49.5t71 -16.5q74 0 121 35q45 33 75 118.5t30 156.5q0 77 -76 77q-124 0 -201 -102h-237l209 786h798q-32 -116 -122.5 -197t-188.5 -81h-278l-44 -166q78 29 154 29q82 0 143.5 -26.5t94.5 -70t48 -91.5t15 -99 q0 -64 -31 -182q-20 -73 -50 -138t-76.5 -126.5t-104.5 -105.5t-138 -70.5t-173 -26.5q-78 0 -138.5 18t-97.5 47t-60.5 68t-32.5 77t-9 78z" />
<glyph unicode="6" horiz-adv-x="966" d="M125 293q0 117 55.5 225.5t167.5 257.5l236 316q92 122 239 184.5t291 62.5l-391 -505h14q122 0 203.5 -79.5t81.5 -215.5q0 -105 -44 -205.5t-117.5 -176.5t-177 -122.5t-214.5 -46.5q-159 0 -251.5 79.5t-92.5 225.5zM436 354q0 -40 24 -63t64 -23q78 0 132.5 65.5 t54.5 149.5q0 40 -23 62t-65 22q-77 0 -132 -65.5t-55 -147.5z" />
<glyph unicode="7" horiz-adv-x="925" d="M131 0l692 1061h-280q-88 0 -141.5 53t-53.5 137q0 38 17 88h878l-69 -262l-705 -1077h-338z" />
<glyph unicode="8" horiz-adv-x="989" d="M123 291q0 120 61.5 227.5t167.5 177.5q-61 76 -61 174q0 126 77.5 238.5t201 178t255.5 65.5q152 0 247 -80t95 -217q0 -105 -55 -203t-149 -168q73 -80 73 -190q0 -134 -80 -252t-208.5 -186t-268.5 -68q-161 0 -258.5 79.5t-97.5 223.5zM436 362q0 -41 28 -67.5 t71 -26.5q69 0 130.5 55t61.5 130q0 42 -26.5 69t-71.5 27q-70 0 -131.5 -57t-61.5 -130zM596 903q0 -37 23.5 -59.5t64.5 -22.5q63 0 115.5 51t52.5 119q0 36 -21 58t-59 22q-64 0 -120 -50t-56 -118z" />
<glyph unicode="9" horiz-adv-x="966" d="M168 0l393 508h-14q-125 0 -206 79t-81 216q0 104 44.5 204.5t119 176t177.5 122t214 46.5q158 0 251 -80t93 -225q0 -64 -17 -127t-52 -127t-68.5 -114t-85.5 -118l-236 -313q-62 -84 -156.5 -141.5t-188.5 -82t-187 -24.5zM573 858q0 -40 23 -63t63 -23 q78 0 133.5 65.5t55.5 149.5q0 40 -23.5 62t-64.5 22q-77 0 -132 -65.5t-55 -147.5z" />
<glyph unicode=":" horiz-adv-x="546" d="M88 0l90 336h336l-35 -139q-20 -82 -94.5 -139.5t-157.5 -57.5h-139zM231 535l91 333h335l-34 -135q-22 -83 -95.5 -140.5t-156.5 -57.5h-140z" />
<glyph unicode=";" horiz-adv-x="546" d="M31 -207l145 543h340l-76 -270q-35 -122 -158 -197.5t-251 -75.5zM229 535l90 333h338l-34 -135q-22 -83 -96 -140.5t-158 -57.5h-140z" />
<glyph unicode="&#x3c;" horiz-adv-x="956" d="M180 414l60 198l888 426l-88 -348l-448 -207l332 -225l-80 -293z" />
<glyph unicode="=" horiz-adv-x="956" d="M129 301l90 268h797l-90 -268h-797zM238 639l88 270h796l-86 -270h-798z" />
<glyph unicode="&#x3e;" horiz-adv-x="956" d="M72 -41l90 348l448 207l-331 225l77 293l664 -448l-59 -199z" />
<glyph unicode="?" horiz-adv-x="876" d="M145 0l76 289h283l-33 -123q-17 -68 -79.5 -117t-131.5 -49h-115zM225 891q29 94 71.5 169.5t92 125t108 82.5t116.5 47t120 14q154 0 240 -88t86 -221t-82.5 -246.5t-214.5 -171.5q-101 -43 -156.5 -93t-79.5 -142h-284q49 180 141 285.5t225 158.5q66 26 102 53t46 68 q13 42 -10 73t-66 31q-128 0 -191 -145h-264z" />
<glyph unicode="@" horiz-adv-x="1730" d="M106 260q0 230 79 433.5t216 350t331.5 231.5t416.5 85q180 0 318 -81.5t211 -224.5t73 -325q0 -84 -18.5 -180.5t-59.5 -196t-98.5 -180t-143 -131.5t-184.5 -51q-121 0 -200 76q-99 -80 -271 -80q-61 0 -108 18t-77 48t-49 72.5t-26.5 87.5t-7.5 97q0 94 23 191 t71 188.5t114 163t160 115t201 43.5q77 0 133.5 -25t89.5 -69t48.5 -99.5t15.5 -122.5q0 -78 -27 -184l-24 -96q-21 -74 -21 -109q0 -22 15 -22q34 0 73.5 60t66 152t26.5 177q0 204 -107.5 314t-275.5 110q-120 0 -224.5 -36.5t-180.5 -99.5t-135 -144t-95 -174t-54 -185 t-18 -181q0 -96 19 -163t62.5 -115.5t118 -71t183.5 -22.5q124 0 260 65l117 -207q-68 -46 -200 -87.5t-236 -41.5q-179 0 -316.5 80.5t-211 222.5t-73.5 324zM795 344q0 -76 77 -76q42 0 74 17.5t54.5 54.5t37 74t31.5 96q25 110 25 147q0 74 -74 74q-36 0 -64.5 -13 t-48 -32t-36 -53t-27 -64.5t-23.5 -76.5q-26 -98 -26 -148z" />
<glyph unicode="A" horiz-adv-x="1204" d="M-51 0l692 1096q86 136 194.5 203t225.5 67l137 -1366h-338l-18 227h-404l-139 -227h-350zM612 514h217l-22 322z" />
<glyph unicode="B" horiz-adv-x="1153" d="M80 0l268 1001q41 151 185 258t305 107h155q172 0 263.5 -76.5t91.5 -212.5q0 -219 -213 -381q79 -79 79 -190q0 -140 -75 -257t-200 -183t-269 -66h-590zM485 297h220q69 0 115.5 38t60.5 95q4 17 4 31q0 29 -15 51q-22 32 -79 31h-236zM633 842h201q66 0 112 34t60 89 q4 15 4 29q0 26 -16 46q-24 28 -81 29h-135q-34 0 -66.5 -26t-41.5 -62z" />
<glyph unicode="C" horiz-adv-x="1161" d="M166 348q0 90 61 320q18 64 25.5 91t24 81.5t27 81.5t28.5 71t34.5 70.5t38.5 60t47.5 59.5t55.5 50q87 70 194.5 107.5t217.5 37.5q187 0 296 -99t109 -284q0 -2 -2 -38.5t-2 -61.5h-330v18q0 164 -127 164q-100 0 -157 -57q-45 -36 -74 -101.5t-78 -244.5 q-53 -194 -53 -275q0 -53 33 -81.5t94 -28.5q152 0 248 182h331q-47 -129 -118.5 -225t-157 -151t-176.5 -81t-189 -26q-178 0 -289.5 100.5t-111.5 259.5z" />
<glyph unicode="D" horiz-adv-x="1185" d="M80 0l268 1001q41 151 185 258t305 107h102q236 0 338 -137q65 -91 65 -211q0 -42 -7 -88t-15 -78t-25 -96l-32 -125q-14 -54 -21.5 -79.5t-23 -74.5t-28 -77.5t-33.5 -70.5t-43.5 -71.5t-54.5 -63.5t-69 -63q-170 -131 -397 -131h-514zM485 297h146q45 0 82.5 11 t64.5 27t50.5 46t39 56.5t31.5 71t25.5 76.5t23.5 84q5 19 8 29q50 195 50 250q0 26 -15 60q-39 61 -133 61h-80q-35 0 -66 -25.5t-42 -62.5z" />
<glyph unicode="E" horiz-adv-x="1052" d="M82 0l266 1001q41 150 185.5 257.5t304.5 107.5h536q-34 -123 -132 -210t-202 -87h-262q-34 0 -66.5 -26t-41.5 -62l-39 -145h510q-31 -122 -128.5 -209.5t-203.5 -87.5h-256l-66 -242h600q-32 -122 -129.5 -209.5t-201.5 -87.5h-674z" />
<glyph unicode="F" horiz-adv-x="1034" d="M82 0l266 1001q40 150 185 257.5t305 107.5h536q-34 -123 -132 -210t-202 -87h-262q-35 0 -67 -25.5t-41 -62.5l-41 -158h510q-32 -123 -130 -210t-204 -87h-256l-139 -526h-328z" />
<glyph unicode="G" horiz-adv-x="1173" d="M168 348q0 97 59 320q20 72 36 125t39.5 117.5t46.5 111.5t55.5 98.5t68 87.5t82.5 70t100.5 54.5t120.5 33t144 12.5q187 0 296 -99t109 -284q0 -2 -2 -38.5t-2 -61.5h-330v14q0 73 -29 119q-32 51 -102 51q-58 0 -103 -21.5t-72 -47.5t-51.5 -81.5t-34.5 -89.5 t-28 -106q-11 -39 -16 -59q-55 -202 -55 -277q0 -52 34 -80t93 -28q102 0 171.5 61t96.5 162q-76 14 -126 69t-50 126q0 31 18 86h563l-65 -234q-42 -154 -96 -249t-144 -167q-191 -155 -428 -155q-178 0 -288.5 100.5t-110.5 259.5z" />
<glyph unicode="H" horiz-adv-x="1226" d="M82 0l293 1083q31 114 149 198.5t250 84.5l-141 -530h362l68 247q31 114 150.5 198.5t252.5 84.5l-366 -1366h-326l144 541h-365l-143 -541h-328z" />
<glyph unicode="I" horiz-adv-x="497" d="M74 0l291 1083q31 115 149.5 199t251.5 84l-365 -1366h-327z" />
<glyph unicode="J" horiz-adv-x="729" d="M31 207q0 33 14 90h209q69 0 106.5 47t65.5 150l160 589q31 115 149.5 199t251.5 84l-258 -965q-53 -194 -169.5 -303.5t-272.5 -109.5q-120 0 -188 62t-68 157z" />
<glyph unicode="K" horiz-adv-x="1220" d="M84 0l293 1083q31 114 149 198.5t250 84.5l-133 -494l348 324q84 78 157.5 113t165 46t271.5 11l-618 -561l262 -805q-372 0 -443 233l-98 328l-170 -155l-106 -406h-328z" />
<glyph unicode="L" horiz-adv-x="944" d="M76 0l291 1083q31 114 150.5 198.5t252.5 84.5l-287 -1069h514q-32 -122 -129.5 -209.5t-201.5 -87.5h-590z" />
<glyph unicode="M" horiz-adv-x="1468" d="M86 0l291 1083q31 115 143.5 199t237.5 84l139 -651l287 383q95 125 226 196.5t288 71.5l-367 -1366h-325l163 623l-276 -361h-217l-90 383l-174 -645h-326z" />
<glyph unicode="N" horiz-adv-x="1275" d="M84 0l291 1083q32 117 131 200t221 83l268 -713l115 430q31 114 150.5 198.5t252.5 84.5l-366 -1366h-277l-270 713l-190 -713h-326z" />
<glyph unicode="O" horiz-adv-x="1167" d="M166 348q0 110 65 344q37 133 79.5 234.5t101.5 189t130.5 143.5t167 87.5t212.5 31.5q163 0 282 -99.5t119 -262.5q0 -117 -66 -342q-39 -136 -78 -233t-96 -187.5t-126.5 -145.5t-167 -87.5t-220.5 -32.5q-192 0 -297.5 95t-105.5 265zM500 399q0 -42 14 -61 q28 -49 115 -49q40 0 75 12.5t60.5 31t49 52t39 62.5t32.5 77t26.5 81t24.5 87q53 192 53 271q0 36 -16 65q-28 49 -111 49q-95 0 -160 -59q-43 -34 -73 -104t-74 -240q-55 -213 -55 -275z" />
<glyph unicode="P" horiz-adv-x="1142" d="M80 0l268 1001q43 163 171.5 264t318.5 101h114q182 0 286.5 -96t104.5 -246q0 -108 -41 -205.5t-115 -171t-185.5 -117t-243.5 -43.5h-221l-127 -487h-330zM618 786h189q83 0 145 55.5t62 135.5q0 43 -29.5 67.5t-83.5 24.5h-123q-37 0 -68 -25.5t-40 -62.5z" />
<glyph unicode="Q" horiz-adv-x="1167" d="M166 348q0 97 65 344q28 102 48 162.5t52.5 136.5t76.5 133.5t102 104.5q88 70 194.5 109.5t217.5 39.5q180 0 290.5 -97t110.5 -265q0 -45 -11 -108t-20.5 -101.5t-34.5 -132.5q-27 -100 -38 -137.5t-35.5 -107t-52 -116t-64.5 -90.5l98 -133q-43 -44 -94.5 -72 t-97.5 -28q-81 0 -135 59q-135 -61 -269 -61q-190 0 -296.5 95.5t-106.5 264.5zM500 399q0 -42 14 -61q28 -49 115 -49h35l-76 102q125 105 207 105q34 0 69 -21q33 67 72 217q53 192 53 271q0 36 -16 65q-28 49 -111 49q-95 0 -160 -59q-43 -34 -73 -104t-74 -240 q-55 -213 -55 -275z" />
<glyph unicode="R" horiz-adv-x="1177" d="M80 0l268 1001q45 170 172 267.5t318 97.5h143q175 0 270 -90t95 -234q0 -58 -17 -116q-38 -126 -126.5 -220.5t-192.5 -136.5l143 -569q-176 0 -272.5 54t-126.5 184l-64 278h-143l-137 -516h-330zM623 801h190q70 0 124 39.5t71 101.5q5 19 5 36q-1 32 -19 56 q-28 36 -91 35h-123q-35 0 -66.5 -26t-43.5 -62z" />
<glyph unicode="S" horiz-adv-x="1101" d="M70 371h329q19 -41 61.5 -61.5t129.5 -20.5q105 0 173 43t68 117q0 79 -184 90q-157 8 -252.5 90t-95.5 219q0 113 42 210t120 168t196 111.5t263 40.5q187 0 296 -99t109 -284q0 -25 -2 -43h-334q-6 58 -43.5 91.5t-105.5 33.5q-213 0 -213 -155q0 -75 180 -80 q156 -5 255 -92t99 -230q0 -52 -18 -110q-53 -205 -208.5 -313.5t-408.5 -108.5q-170 0 -288.5 91.5t-167.5 291.5z" />
<glyph unicode="T" horiz-adv-x="1017" d="M279 1069q32 122 129 209.5t200 87.5h752q-31 -123 -127.5 -210t-200.5 -87h-88l-287 -1069h-325l284 1069h-337z" />
<glyph unicode="U" horiz-adv-x="1234" d="M197 352q0 74 18 137l162 594q31 114 149 198.5t250 84.5l-237 -887q-9 -35 -9 -71q0 -58 35 -88.5t99 -30.5q92 0 161 55.5t95 153.5l157 585q31 114 149 198.5t249 84.5l-240 -895q-58 -215 -237 -349t-394 -134q-184 0 -295.5 99t-111.5 265z" />
<glyph unicode="V" horiz-adv-x="1075" d="M326 1075v14q0 107 85 189q91 88 230 88l33 -752l434 752h342l-815 -1366h-244z" />
<glyph unicode="W" horiz-adv-x="1665" d="M328 0l2 1077q0 127 88 208t246 81l-15 -713l398 713h243l15 -711l372 711h340l-733 -1366h-266l-29 692l-395 -692h-266z" />
<glyph unicode="X" horiz-adv-x="1138" d="M-59 0l616 709l-117 356q-14 44 -14 78q0 94 78.5 158.5t200.5 64.5l102 -379l305 379h383l-586 -676l238 -690h-367l-118 410l-338 -410h-383z" />
<glyph unicode="Y" horiz-adv-x="1028" d="M311 0l152 565l-119 502q-10 38 -10 68q0 99 79 165t208 66l92 -469l342 469h360l-633 -817l-147 -549h-324z" />
<glyph unicode="Z" horiz-adv-x="993" d="M14 0l70 258l737 811h-497q34 122 131 209.5t200 87.5h650l-66 -256l-739 -813h520q-32 -122 -129.5 -209.5t-204.5 -87.5h-672z" />
<glyph unicode="[" horiz-adv-x="698" d="M-20 -295l440 1661h541l-78 -295h-234q-50 -188 -144.5 -536t-144.5 -535h238l-80 -295h-538z" />
<glyph unicode="\" horiz-adv-x="774" d="M356 1473q125 0 210.5 -73.5t95.5 -195.5l86 -1337q-124 0 -209 71.5t-97 196.5z" />
<glyph unicode="]" horiz-adv-x="698" d="M2 -293l80 295h233q50 187 144.5 535t144.5 536h-237l79 295h539l-442 -1661h-541z" />
<glyph unicode="^" horiz-adv-x="1204" d="M299 1182l643 174l561 -180q-48 -100 -130 -169t-165 -69q-39 0 -55 6l-276 98l-338 -98q-14 -6 -56 -6q-86 0 -133.5 70.5t-50.5 173.5z" />
<glyph unicode="_" horiz-adv-x="1255" d="M-147 -446l59 217h1235l-55 -217h-1239z" />
<glyph unicode="`" horiz-adv-x="503" d="M238 1204q42 74 121 126t149 34l311 -68l-106 -196z" />
<glyph unicode="a" horiz-adv-x="960" d="M104 240q0 158 111 263t317 105h195q10 31 10 51q0 58 -106 58h-338q31 116 128.5 192t242.5 76q182 0 281 -74.5t99 -210.5q0 -49 -14 -104l-47 -172q-65 -234 -195.5 -335t-359.5 -101q-147 0 -235.5 67t-88.5 185zM406 303q0 -51 73 -51q75 0 122.5 32.5t68.5 106.5 h-140q-124 0 -124 -88z" />
<glyph unicode="b" horiz-adv-x="999" d="M166 293q0 81 35 215l161 598q29 107 139 183.5t236 76.5l-114 -428q84 47 190 47q74 0 137 -27.5t94 -72.5q43 -64 43 -154q0 -92 -47 -268q-37 -125 -80.5 -207t-115.5 -143q-148 -125 -340 -125q-102 0 -177 37.5t-112 93.5q-49 70 -49 174zM473 342q0 -36 19.5 -55 t66.5 -19q76 0 111 47.5t69 167.5q29 110 29 146q0 76 -80 76t-117.5 -49.5t-68.5 -163.5q-29 -110 -29 -150z" />
<glyph unicode="c" horiz-adv-x="923" d="M137 315q0 101 24.5 198.5t74.5 182.5t119 149.5t163.5 102t202.5 37.5q90 0 159 -30t108.5 -82.5t55.5 -120.5q10 -43 10 -90q0 -26 -3 -54h-306q-3 46 -24.5 72.5t-56.5 26.5q-92 0 -142 -89q-32 -56 -52.5 -130t-20.5 -126q0 -51 18 -72.5t57 -21.5q35 0 74 18.5 t64 53.5h317q-46 -94 -109 -164t-131 -110t-134.5 -59t-131.5 -19q-53 0 -99.5 9t-91 32t-76 59t-50.5 94t-19 133z" />
<glyph unicode="d" horiz-adv-x="1001" d="M141 293q0 83 35 217q21 74 33 110t37 95t58.5 101.5t78.5 78.5q55 42 126 66t142 24q126 0 187 -53l45 174q29 108 138 184t236 76l-235 -874q-39 -143 -82 -228.5t-119 -150.5q-65 -55 -153.5 -90t-188.5 -35q-101 0 -174.5 37.5t-111.5 93.5q-52 77 -52 174zM449 344 q0 -76 83 -76q121 0 191 242q18 66 18 119q0 78 -75 78q-81 0 -119.5 -50t-71.5 -165q-26 -115 -26 -148z" />
<glyph unicode="e" horiz-adv-x="995" d="M143 313q0 79 31 197q63 234 212 354.5t349 120.5q166 0 253 -89.5t87 -240.5q0 -81 -22 -159l-25 -97h-579q-7 -28 -7 -37q0 -51 22.5 -77.5t80.5 -26.5q41 0 84 22.5t61 57.5h307q-62 -125 -146.5 -206t-167.5 -112.5t-173 -31.5q-61 0 -113 9.5t-100 32.5t-81.5 59.5 t-53 93.5t-19.5 130zM504 596h270q4 12 4 29q0 42 -23.5 68t-72.5 26q-116 0 -178 -123z" />
<glyph unicode="f" horiz-adv-x="538" d="M76 0l198 725h-96l64 248h98l20 90q29 117 130 204t247 87h185q-33 -117 -83 -183t-102 -79q-37 -7 -54.5 -17t-23.5 -35l-14 -67h174q-25 -94 -95 -165.5t-146 -80.5l-197 -727h-305z" />
<glyph unicode="g" horiz-adv-x="989" d="M20 -45h269q12 -33 32.5 -48t57.5 -18q7 -1 15 -1q55 0 108 33q59 37 73 108q-63 -25 -153 -25q-134 0 -213.5 83.5t-79.5 195.5q0 64 39 219q61 240 192 361.5t363 121.5q85 0 150.5 -23.5t102.5 -63.5t55 -86t18 -97q0 -64 -33 -193l-123 -461q-55 -203 -194 -307 t-351 -104q-137 0 -223.5 76.5t-104.5 228.5zM446 354q0 -69 74 -69q41 0 73.5 17.5t53.5 50.5t35 67.5t25 81.5q22 93 22 133q0 70 -65 70q-37 0 -65 -11t-47 -28t-35 -48t-26 -60.5t-22 -74.5q-23 -79 -23 -129z" />
<glyph unicode="h" horiz-adv-x="1015" d="M63 0l295 1106q28 103 141 181.5t234 78.5l-119 -432q94 51 193 51q135 0 202.5 -68.5t67.5 -189.5q0 -55 -16 -127l-160 -600h-305l156 586q8 32 8 47q0 37 -23.5 54.5t-60.5 17.5q-50 0 -93.5 -34.5t-62.5 -105.5l-151 -565h-306z" />
<glyph unicode="i" horiz-adv-x="440" d="M57 0l191 715q28 101 141.5 179.5t233.5 78.5l-261 -973h-305zM313 956l109 410h305l-70 -266q-101 0 -186 -30.5t-158 -113.5z" />
<glyph unicode="j" horiz-adv-x="440" d="M-106 -276l51 196h11q41 0 63 14q25 16 38 66l189 715q28 101 141.5 179.5t233.5 78.5l-271 -1010q-29 -112 -125 -175.5t-225 -63.5h-106zM311 956l113 410h305l-74 -266q-101 0 -186 -30.5t-158 -113.5z" />
<glyph unicode="k" horiz-adv-x="995" d="M68 0l297 1106q28 103 140.5 181.5t233.5 78.5l-180 -672l148 135q94 87 213 115.5t333 28.5l-456 -408l215 -565h-350l-117 362l-99 -81l-73 -281h-305z" />
<glyph unicode="l" horiz-adv-x="440" d="M57 0l295 1106q26 102 140 181t233 79l-363 -1366h-305z" />
<glyph unicode="m" horiz-adv-x="1603" d="M76 0l145 563q61 226 192 324t341 98q79 0 143 -26.5t100 -75.5q129 102 297 102q155 0 240.5 -81.5t85.5 -227.5q0 -75 -25 -160l-137 -516h-305l152 563q10 31 10 72q0 70 -78 70q-66 0 -109 -43.5t-63 -116.5l-145 -545h-306l152 563q8 50 8 72q0 70 -78 70 q-66 0 -109 -43.5t-63 -116.5l-145 -545h-303z" />
<glyph unicode="n" horiz-adv-x="1021" d="M63 0l144 535q60 228 188 339t348 111q148 0 236 -89t88 -239q0 -68 -20 -141l-140 -516h-303l150 563q12 50 12 72q0 70 -80 70q-66 0 -109 -43.5t-63 -116.5l-145 -545h-306z" />
<glyph unicode="o" d="M137 289q0 252 148 465q164 231 438 231q162 0 249 -75.5t87 -219.5q0 -79 -33 -198q-26 -101 -71 -187.5t-111.5 -159.5t-161.5 -115t-209 -42q-137 0 -236.5 82t-99.5 219zM449 348q0 -80 79 -80q75 0 113.5 46.5t71.5 148.5q37 109 37 162q0 38 -21 59t-61 21 q-70 0 -117 -58q-49 -63 -75.5 -145.5t-26.5 -153.5z" />
<glyph unicode="p" horiz-adv-x="999" d="M-29 -340l219 823q24 87 46.5 150t54.5 123.5t72 100t93 70t122 44.5t157 14q140 0 238 -82t98 -221q0 -79 -29 -190q-23 -83 -47 -148t-65 -135t-89.5 -115.5t-120.5 -75.5t-159 -30q-123 0 -188 39l-99 -367h-303zM471 344q0 -76 78 -76q42 0 72.5 15.5t52 50 t35.5 70.5t30 94q25 95 25 133q0 36 -19.5 55t-66.5 19q-76 0 -113.5 -50.5t-66.5 -162.5q-27 -102 -27 -148z" />
<glyph unicode="q" horiz-adv-x="999" d="M125 240q0 94 47 270q24 86 55 155t77 130t104.5 102t139 64.5t177.5 23.5q90 0 157 -25.5t103 -68.5t53 -90.5t17 -100.5q0 -91 -43 -235l-217 -805h-303l98 358q-69 -30 -189 -30q-124 0 -200 71t-76 181zM446 344q0 -76 78 -76q80 0 122 61.5t73 180.5q18 68 18 119 q0 76 -71 76q-45 0 -76.5 -13.5t-53.5 -44.5t-35.5 -65t-29.5 -90q-25 -110 -25 -148z" />
<glyph unicode="r" horiz-adv-x="796" d="M63 0l127 471q27 97 55.5 168t72.5 137t100 107t136 65.5t181 24.5h316q-39 -133 -132 -198.5t-227 -65.5q-78 0 -121 -59.5t-79 -196.5l-123 -453h-306z" />
<glyph unicode="s" horiz-adv-x="909" d="M53 313h312q11 -26 37.5 -40.5t86.5 -14.5q62 0 105 20t43 62q0 20 -37 28.5t-154 14.5q-124 8 -184.5 48.5t-60.5 135.5q0 130 66.5 226.5t175 144t243.5 47.5q166 0 252 -89q80 -83 80 -210v-18h-307q0 28 -23.5 45.5t-54.5 17.5q-58 0 -90.5 -24t-32.5 -54 q0 -20 28 -26t158 -17q127 -11 187.5 -57t60.5 -141t-43.5 -176t-115 -134.5t-163 -83.5t-188.5 -30q-63 0 -122.5 18.5t-112.5 56t-91.5 102t-54.5 148.5z" />
<glyph unicode="t" horiz-adv-x="563" d="M137 170q0 47 23 129l112 426h-96l64 248h98q29 105 139 181.5t234 76.5l-68 -258h176q-27 -95 -95 -166t-146 -80l-115 -432q-12 -37 22 -37h140q-27 -111 -109 -190.5t-180 -79.5q-199 0 -199 182z" />
<glyph unicode="u" horiz-adv-x="1021" d="M166 299q0 77 22 158l70 254q29 103 141.5 182.5t233.5 79.5l-152 -563q-10 -45 -10 -72q0 -70 78 -70q64 0 108 44t64 116l78 283q30 106 145 184t230 78l-146 -535q-55 -204 -203 -327t-331 -123q-155 0 -241.5 81.5t-86.5 229.5z" />
<glyph unicode="v" horiz-adv-x="903" d="M238 700q-1 11 -1 22q-1 95 79 169q88 82 214 82l27 -475l281 475h323l-616 -973h-234z" />
<glyph unicode="w" horiz-adv-x="1425" d="M242 715v10q0 109 84 177q88 72 225 71l-4 -471l291 471h219l28 -469l246 469h324l-559 -973h-244l-35 487l-301 -487h-244z" />
<glyph unicode="x" horiz-adv-x="985" d="M-53 0l489 516l-76 186q-14 38 -14 72q0 82 79 140.5t181 58.5l68 -219l186 219h361l-445 -475l205 -498h-358l-84 238l-215 -238h-377z" />
<glyph unicode="y" horiz-adv-x="905" d="M-31 -340q15 62 31.5 103t38.5 66t35.5 35t42.5 27q68 42 112 117l62 105l-58 587q-1 10 -1 20q0 98 80 172q88 81 212 81l33 -467l277 467h325l-704 -1108q-65 -101 -149 -153t-202 -52h-135z" />
<glyph unicode="z" horiz-adv-x="858" d="M18 0l60 229l493 463h-346q31 116 122 198.5t188 82.5h522l-60 -230l-497 -462h372q-31 -117 -121.5 -199t-187.5 -82h-545z" />
<glyph unicode="{" horiz-adv-x="577" d="M102 -74q0 30 13 80l86 322q8 31 8 67q0 56 -35 56h-68l70 249h57q31 0 58.5 30t40.5 83l80 303q30 111 111 177.5t175 66.5h211l-65 -250h-101q-44 0 -65 -76l-74 -278q-35 -126 -139 -209q37 -57 37 -127q0 -26 -15 -92l-73 -277q-15 -59 24 -59h103l-64 -248h-194 q-80 0 -130.5 48t-50.5 134z" />
<glyph unicode="|" horiz-adv-x="501" d="M-18 -440l419 1564q25 91 124.5 159.5t207.5 68.5l-420 -1567q-25 -93 -122 -159t-209 -66z" />
<glyph unicode="}" horiz-adv-x="577" d="M-88 -250l70 250h100q26 0 42 21t23 51l74 282q32 122 139 209q-36 42 -36 127q0 57 10 92l76 277q16 57 -25 57h-100l63 250h193q81 0 131.5 -48.5t50.5 -133.5q0 -28 -14 -82l-84 -320q-11 -42 -11 -67q0 -56 37 -56h68l-70 -249h-59q-31 0 -57 -30.5t-39 -84.5 l-82 -303q-30 -110 -111 -176t-174 -66h-215z" />
<glyph unicode="~" horiz-adv-x="546" d="M233 535l91 333h338l-37 -135q-23 -83 -96 -140.5t-156 -57.5h-140z" />
<glyph unicode="&#xa1;" horiz-adv-x="534" d="M10 -338l125 469l146 475h264l-113 -493l-51 -189q-34 -125 -129 -193.5t-242 -68.5zM299 713l29 123q20 69 82 117t131 48h116l-73 -288h-285z" />
<glyph unicode="&#xa2;" horiz-adv-x="923" d="M203 498q0 152 68 299.5t183.5 251.5t247.5 133l7 18q13 55 76 94t137 39l-43 -149q136 -27 198.5 -128t46.5 -241h-305q-3 46 -25 72t-57 26q-93 0 -143 -88q-31 -57 -55.5 -143t-24.5 -137t18.5 -72.5t57.5 -21.5q35 0 73.5 18.5t63.5 52.5h317q-77 -152 -187 -236 t-232 -108l-15 -57q-14 -54 -76 -93.5t-137 -39.5l52 188q-109 19 -177.5 96.5t-68.5 225.5z" />
<glyph unicode="&#xa3;" horiz-adv-x="1017" d="M14 0l74 272q78 21 133 78t101 189h-164q26 95 92 162.5t143 78.5q85 295 208.5 427t344.5 132h336q-33 -123 -115 -200.5t-184 -77.5h-68q-72 0 -126 -62.5t-105 -216.5h211q-28 -101 -104 -172t-158 -71h-19q-66 -181 -141 -256h561q-32 -121 -125 -202t-196 -81h-699z " />
<glyph unicode="&#xa5;" horiz-adv-x="1009" d="M129 301q23 87 87.5 149t133.5 62h76q0 1 1 4.5t1 5.5h-242q23 83 84.5 144t128.5 67l-75 314q-9 35 -9 65q0 97 77 162t202 65l90 -456q33 46 153 208.5t181 247.5h360l-475 -606h150q-25 -88 -90 -149.5t-134 -61.5l-77 -2l-4 -8h245q-25 -88 -89.5 -149.5 t-131.5 -61.5h-82l-80 -301h-319l82 301h-244z" />
<glyph unicode="&#xa7;" horiz-adv-x="546" d="M233 535l91 333h338l-37 -135q-23 -83 -96 -140.5t-156 -57.5h-140z" />
<glyph unicode="&#xa8;" horiz-adv-x="577" d="M272 1106l80 260h295l-35 -109q-20 -62 -82.5 -106.5t-132.5 -44.5h-125zM625 1106l80 260h290l-28 -109q-19 -64 -83 -107.5t-136 -43.5h-123z" />
<glyph unicode="&#xa9;" horiz-adv-x="1511" d="M205 502q0 90 24 174q48 180 179 333.5t309 242.5t360 89q234 0 379.5 -142.5t145.5 -364.5q0 -85 -25 -177q-38 -133 -125.5 -256t-200.5 -213t-250 -144t-270 -54q-235 0 -380.5 144t-145.5 368zM369 526q0 -163 107.5 -268.5t279.5 -105.5q141 0 279.5 71t241 191.5 t142.5 261.5q19 82 19 133q0 161 -108 267t-279 106q-142 0 -281.5 -70.5t-242.5 -191.5t-142 -263q-16 -90 -16 -131zM567 465q0 49 35 205q24 113 54.5 188.5t86.5 130.5q94 88 209 88q105 0 160.5 -76.5t42.5 -224.5q-61 0 -109.5 22t-72.5 54q-21 31 -51 31 q-44 0 -72 -31q-21 -21 -35 -59t-39 -142q-26 -116 -26 -153q0 -17 8 -37q13 -23 49 -23q27 0 61 23q35 31 89.5 57.5t107.5 26.5l43 -4q-47 -129 -141 -214t-191 -85q-116 0 -174 98q-35 52 -35 125z" />
<glyph unicode="&#xaa;" horiz-adv-x="720" d="M197 756q0 122 88 208.5t245 86.5h140q0 1 1 3t1 3q6 21 6 33q0 34 -74 34h-264q26 95 101.5 156t187.5 61q141 0 219 -57.5t78 -163.5q0 -36 -15 -82l-39 -147q-51 -179 -149.5 -255.5t-273.5 -76.5q-115 0 -183.5 51.5t-68.5 145.5zM440 793q0 -19 47 -19q90 0 129 88 h-90q-39 0 -62.5 -18.5t-23.5 -50.5zM616 862q7 4 7 15l4 26l37 -41h-48z" />
<glyph unicode="&#xab;" horiz-adv-x="702" d="M152 43v477l256 457q83 -19 133 -80t14 -125l-149 -268v-234q2 -47 -21 -86.5t-64 -66.5t-81.5 -44.5t-87.5 -29.5zM481 43v477l256 457q83 -19 132.5 -80t13.5 -125l-150 -268v-234q2 -47 -20.5 -86t-63 -66t-81.5 -45t-87 -30z" />
<glyph unicode="&#xac;" horiz-adv-x="546" d="M233 535l91 333h338l-37 -135q-23 -83 -96 -140.5t-156 -57.5h-140z" />
<glyph unicode="&#xad;" horiz-adv-x="817" d="M170 401l82 287h653l-78 -287h-657z" />
<glyph unicode="&#xae;" horiz-adv-x="1511" d="M205 502q0 90 24 174q48 180 179 333.5t309 242.5t360 89q234 0 379.5 -142.5t145.5 -364.5q0 -85 -25 -177q-38 -133 -125.5 -256t-200.5 -213t-250 -144t-270 -54q-235 0 -380.5 144t-145.5 368zM369 526q0 -163 107.5 -268.5t279.5 -105.5q141 0 279.5 71t241 191.5 t142.5 261.5q19 82 19 133q0 161 -108 267t-279 106q-142 0 -281.5 -70.5t-242.5 -191.5t-142 -263q-16 -90 -16 -131zM526 260l138 600q22 94 95.5 158.5t158.5 64.5h67q92 0 141.5 -55.5t49.5 -142.5q0 -37 -9 -74q-18 -76 -60.5 -131.5t-96.5 -81.5q36 -161 71 -338 q-97 0 -154.5 34t-74.5 114l-27 155h-49l-69 -303h-181zM817 752h84q32 0 56.5 21t33.5 56q5 25 -7 41.5t-36 16.5h-61q-17 0 -29.5 -11.5t-17.5 -29.5z" />
<glyph unicode="&#xaf;" horiz-adv-x="565" d="M307 1126q29 100 115 170t180 70h377q-31 -98 -117.5 -169t-177.5 -71h-377z" />
<glyph unicode="&#xb0;" horiz-adv-x="704" d="M276 848q0 34 13 78q34 120 151.5 204t249.5 84q117 0 189.5 -64t72.5 -163q0 -35 -14 -76q-35 -120 -153.5 -203t-252.5 -83q-115 0 -185.5 62t-70.5 161zM516 911q-9 -32 9 -53.5t53 -21.5q39 0 78 27t53 63q8 32 -10 55t-52 23q-42 0 -81 -28t-50 -65z" />
<glyph unicode="&#xb1;" horiz-adv-x="1042" d="M59 -12l86 291h854l-84 -291h-856zM170 422l88 291h279l79 282h289l-78 -282h287l-86 -291h-280l-23 -98h-289l25 98h-291z" />
<glyph unicode="&#xb4;" horiz-adv-x="499" d="M264 1094l10 204l332 64q85 16 137.5 -38t47.5 -130z" />
<glyph unicode="&#xb6;" horiz-adv-x="1150" d="M317 879q0 44 11 92q51 184 189.5 276t342.5 92h420l-389 -1456h-193l342 1268h-98l-340 -1268h-192l192 713q-136 12 -210.5 88t-74.5 195z" />
<glyph unicode="&#xb7;" horiz-adv-x="546" d="M233 535l91 333h338l-37 -135q-23 -83 -96 -140.5t-156 -57.5h-140z" />
<glyph unicode="&#xb8;" horiz-adv-x="253" d="M-109 -260q0 52 48 94h-2l200 195q55 -18 85 -49.5t30 -67.5q0 -49 -51 -94h2l-199 -193q-56 20 -84.5 50t-28.5 65z" />
<glyph unicode="&#xba;" horiz-adv-x="735" d="M213 788q0 47 29 170q30 105 66 172t95 115q109 94 261 94q81 0 138.5 -29t86.5 -73q39 -58 39 -131q0 -56 -29 -166q-28 -107 -64 -174.5t-98 -116.5q-107 -92 -264 -92q-155 0 -221 100l2 -2q-41 55 -41 133zM465 836q0 -26 6 -35q14 -17 45 -17q35 0 68 23 q18 15 32.5 41.5t21.5 47t19 62.5q3 13 8.5 35.5t9 39t3.5 30.5q0 20 -10 33q-13 16 -45 16q-34 0 -66 -25q-41 -36 -74 -147q-18 -74 -18 -104z" />
<glyph unicode="&#xbb;" horiz-adv-x="702" d="M80 248l149 268v234q-2 47 20.5 86t63 66t81.5 45t87 30v-477l-256 -457q-83 19 -132 80t-13 125zM408 248l149 268v234q-2 47 21 86.5t64 66.5t81.5 44.5t87.5 29.5v-477l-256 -457q-83 19 -133 80t-14 125z" />
<glyph unicode="&#xbf;" horiz-adv-x="876" d="M43 -16q0 56 12 100q64 221 287 315q100 42 155 93t78 143h287q-48 -178 -141 -284t-225 -161q-66 -24 -102 -51t-46 -69q-13 -42 9.5 -73.5t64.5 -31.5q57 0 100 43q96 103 350 103q-57 -176 -205.5 -307.5t-295.5 -131.5q-155 0 -241.5 88.5t-86.5 223.5zM598 713 l29 123q20 69 82.5 117t132.5 48h114l-73 -288h-285z" />
<glyph unicode="&#xc0;" horiz-adv-x="1204" d="M-51 0l692 1096q86 136 194.5 203t225.5 67l137 -1366h-338l-18 227h-404l-139 -227h-350zM612 514h217l-22 322zM625 1550q42 74 121 126t149 34l311 -68l-106 -196z" />
<glyph unicode="&#xc1;" horiz-adv-x="1204" d="M-51 0l692 1096q86 136 194.5 203t225.5 67l137 -1366h-338l-18 227h-404l-139 -227h-350zM612 514h217l-22 322zM737 1440l10 204l332 64q85 16 137.5 -38t47.5 -130z" />
<glyph unicode="&#xc2;" horiz-adv-x="1204" d="M-51 0l692 1096q86 136 194.5 203t225.5 67l137 -1366h-338l-18 227h-404l-139 -227h-350zM612 514h217l-22 322zM641 1594l401 96l356 -102q-39 -74 -111 -124.5t-138 -31.5l-156 47l-182 -47q-84 -19 -129.5 32.5t-40.5 129.5z" />
<glyph unicode="&#xc3;" horiz-adv-x="1204" d="M-51 0l692 1096q86 136 194.5 203t225.5 67l137 -1366h-338l-18 227h-404l-139 -227h-350zM612 514h217l-22 322zM653 1430q32 108 122 186t183 78q30 0 58.5 -7.5t40.5 -14t35 -19.5q4 -2 14.5 -8.5t18.5 -9.5t16 -3q9 0 21 17.5t18 40.5h231q-32 -107 -122.5 -185 t-182.5 -78q-13 0 -24.5 1t-23 4t-19.5 5t-19.5 7t-16 7t-16.5 8l-14 7h2q-41 23 -51 23q-18 0 -39 -59h-232z" />
<glyph unicode="&#xc4;" horiz-adv-x="1204" d="M-51 0l692 1096q86 136 194.5 203t225.5 67l137 -1366h-338l-18 227h-404l-139 -227h-350zM612 514h217l-22 322zM669 1432l80 260h295l-35 -109q-20 -62 -82.5 -106.5t-132.5 -44.5h-125zM1022 1432l80 260h290l-28 -109q-19 -64 -83 -107.5t-136 -43.5h-123z" />
<glyph unicode="&#xc5;" horiz-adv-x="1204" d="M-51 0l692 1096q86 136 194.5 203t225.5 67l137 -1366h-338l-18 227h-404l-139 -227h-350zM612 514h217l-22 322zM877 1638q23 78 99.5 133.5t162.5 55.5q94 0 143.5 -60t24.5 -143q-23 -78 -100.5 -132t-164.5 -54q-95 0 -143 57t-22 143zM1051 1624q-3 -10 3 -18.5 t17 -8.5q18 0 36 12.5t26 28.5q0 9 -7 18t-16 9q-19 0 -36 -12t-23 -29z" />
<glyph unicode="&#xc6;" horiz-adv-x="1875" d="M-57 0l1097 1102q132 132 251.5 198t215.5 66h656q-34 -123 -132 -210t-202 -87h-262q-34 0 -67 -26t-42 -62l-39 -145h510q-31 -122 -128.5 -209.5t-203.5 -87.5h-256l-67 -242h602q-32 -122 -129.5 -209.5t-202.5 -87.5h-676l88 326h-313l-326 -326h-374zM926 612h108 l62 195z" />
<glyph unicode="&#xc7;" horiz-adv-x="1122" d="M166 348q0 90 61 320q18 64 25.5 91t24 81.5t27 81.5t28.5 71t34.5 70.5t38.5 60t47.5 59.5t55.5 50q87 70 194.5 107.5t217.5 37.5q187 0 296 -99t109 -284q0 -2 -2 -38.5t-2 -61.5h-330q7 182 -127 182q-100 0 -157 -57q-45 -36 -74 -101.5t-78 -244.5 q-53 -194 -53 -275q0 -53 33 -81.5t94 -28.5q152 0 248 182h331q-47 -129 -118.5 -225t-157 -151t-176.5 -81t-189 -26q-178 0 -289.5 100.5t-111.5 259.5zM326 -260q0 53 47 94h-2l200 195q55 -18 85 -49.5t30 -67.5q0 -49 -51 -94h2l-199 -193q-112 40 -112 115z" />
<glyph unicode="&#xc8;" horiz-adv-x="1052" d="M82 0l266 1001q41 150 185.5 257.5t304.5 107.5h536q-34 -123 -132 -210t-202 -87h-262q-34 0 -66.5 -26t-41.5 -62l-39 -145h510q-31 -122 -128.5 -209.5t-203.5 -87.5h-256l-66 -242h600q-32 -122 -129.5 -209.5t-201.5 -87.5h-674zM578 1550q42 74 121 126t149 34 l311 -68l-106 -196z" />
<glyph unicode="&#xc9;" horiz-adv-x="1052" d="M82 0l266 1001q41 150 185.5 257.5t304.5 107.5h536q-34 -123 -132 -210t-202 -87h-262q-34 0 -66.5 -26t-41.5 -62l-39 -145h510q-31 -122 -128.5 -209.5t-203.5 -87.5h-256l-66 -242h600q-32 -122 -129.5 -209.5t-201.5 -87.5h-674zM723 1438l10 204l332 64 q85 16 137.5 -38t47.5 -130z" />
<glyph unicode="&#xca;" horiz-adv-x="1052" d="M82 0l266 1001q41 150 185.5 257.5t304.5 107.5h536q-34 -123 -132 -210t-202 -87h-262q-34 0 -66.5 -26t-41.5 -62l-39 -145h510q-31 -122 -128.5 -209.5t-203.5 -87.5h-256l-66 -242h600q-32 -122 -129.5 -209.5t-201.5 -87.5h-674zM582 1593l401 97l356 -103 q-39 -73 -111 -123.5t-138 -31.5l-156 47l-182 -47q-84 -19 -129.5 32.5t-40.5 128.5z" />
<glyph unicode="&#xcb;" horiz-adv-x="1052" d="M82 0l266 1001q41 150 185.5 257.5t304.5 107.5h536q-34 -123 -132 -210t-202 -87h-262q-34 0 -66.5 -26t-41.5 -62l-39 -145h510q-31 -122 -128.5 -209.5t-203.5 -87.5h-256l-66 -242h600q-32 -122 -129.5 -209.5t-201.5 -87.5h-674zM626 1432l80 260h295l-35 -109 q-20 -62 -82.5 -106.5t-132.5 -44.5h-125zM979 1432l80 260h290l-28 -109q-19 -64 -83 -107.5t-136 -43.5h-123z" />
<glyph unicode="&#xcc;" horiz-adv-x="497" d="M74 0l291 1083q31 115 149.5 199t251.5 84l-365 -1366h-327zM360 1548q42 74 121.5 126t149.5 34l311 -68l-106 -196z" />
<glyph unicode="&#xcd;" horiz-adv-x="497" d="M74 0l291 1083q31 115 149.5 199t251.5 84l-365 -1366h-327zM442 1440l10 204l332 64q85 16 137.5 -38t47.5 -130z" />
<glyph unicode="&#xce;" horiz-adv-x="497" d="M74 0l291 1083q31 115 149.5 199t251.5 84l-365 -1366h-327zM410 1618l401 96l356 -102q-39 -74 -111 -124.5t-138 -31.5l-156 47l-182 -47q-84 -19 -129.5 32.5t-40.5 129.5z" />
<glyph unicode="&#xcf;" horiz-adv-x="497" d="M74 0l291 1083q31 115 149.5 199t251.5 84l-365 -1366h-327zM372 1432l80 260h295l-35 -109q-20 -62 -82.5 -106.5t-132.5 -44.5h-125zM725 1432l80 260h290l-28 -109q-19 -64 -83 -107.5t-136 -43.5h-123z" />
<glyph unicode="&#xd0;" horiz-adv-x="1185" d="M80 0l137 512h-127q23 89 75.5 155.5t119.5 92.5l63 241q40 150 184 257.5t306 107.5h102q236 0 338 -137q65 -91 65 -211q0 -103 -65 -336l-14 -51q-50 -180 -83 -254q-67 -150 -190 -246q-170 -131 -397 -131h-514zM485 297h146q45 0 82.5 11.5t65 29t51 48t39.5 59 t32 72.5t26 77.5t24 83.5q3 13 5 20q50 195 50 250q0 26 -15 60q-39 61 -133 61h-80q-34 0 -66.5 -26t-41.5 -62l-52 -203h209q-31 -107 -112.5 -183.5t-169.5 -82.5z" />
<glyph unicode="&#xd1;" horiz-adv-x="1275" d="M84 0l291 1083q32 117 131 200t221 83l268 -713l115 430q31 114 150.5 198.5t252.5 84.5l-366 -1366h-277l-270 713l-190 -713h-326zM679 1430q32 108 122.5 186t183.5 78q30 0 58.5 -7.5t39.5 -13.5t35 -20q4 -2 11.5 -6.5t12.5 -7t12 -4.5t13 -2q9 0 21 17t18 40h231 q-32 -107 -122.5 -184.5t-182.5 -77.5q-13 0 -24.5 1t-23 4t-19.5 5t-19.5 7t-16 7t-16.5 8l-14 7h2q-40 22 -51 22q-18 0 -39 -59h-232z" />
<glyph unicode="&#xd2;" horiz-adv-x="1167" d="M166 348q0 110 65 344q37 133 79.5 234.5t101.5 189t130.5 143.5t167 87.5t212.5 31.5q163 0 282 -99.5t119 -262.5q0 -117 -66 -342q-39 -136 -78 -233t-96 -187.5t-126.5 -145.5t-167 -87.5t-220.5 -32.5q-192 0 -297.5 95t-105.5 265zM500 399q0 -42 14 -61 q28 -49 115 -49q40 0 75 12.5t60.5 31t49 52t39 62.5t32.5 77t26.5 81t24.5 87q53 192 53 271q0 36 -16 65q-28 49 -111 49q-95 0 -160 -59q-43 -34 -73 -104t-74 -240q-55 -213 -55 -275zM578 1550q42 74 121 126t149 34l311 -68l-106 -196z" />
<glyph unicode="&#xd3;" horiz-adv-x="1167" d="M166 348q0 110 65 344q37 133 79.5 234.5t101.5 189t130.5 143.5t167 87.5t212.5 31.5q163 0 282 -99.5t119 -262.5q0 -117 -66 -342q-39 -136 -78 -233t-96 -187.5t-126.5 -145.5t-167 -87.5t-220.5 -32.5q-192 0 -297.5 95t-105.5 265zM500 399q0 -42 14 -61 q28 -49 115 -49q40 0 75 12.5t60.5 31t49 52t39 62.5t32.5 77t26.5 81t24.5 87q53 192 53 271q0 36 -16 65q-28 49 -111 49q-95 0 -160 -59q-43 -34 -73 -104t-74 -240q-55 -213 -55 -275zM692 1440l10 204l332 64q85 16 137.5 -38t47.5 -130z" />
<glyph unicode="&#xd4;" horiz-adv-x="1167" d="M166 348q0 110 65 344q37 133 79.5 234.5t101.5 189t130.5 143.5t167 87.5t212.5 31.5q163 0 282 -99.5t119 -262.5q0 -117 -66 -342q-39 -136 -78 -233t-96 -187.5t-126.5 -145.5t-167 -87.5t-220.5 -32.5q-192 0 -297.5 95t-105.5 265zM500 399q0 -42 14 -61 q28 -49 115 -49q40 0 75 12.5t60.5 31t49 52t39 62.5t32.5 77t26.5 81t24.5 87q53 192 53 271q0 36 -16 65q-28 49 -111 49q-95 0 -160 -59q-43 -34 -73 -104t-74 -240q-55 -213 -55 -275zM582 1595l401 97l356 -103q-39 -73 -111 -123.5t-138 -31.5l-156 47l-182 -47 q-84 -19 -129.5 32.5t-40.5 128.5z" />
<glyph unicode="&#xd5;" horiz-adv-x="1167" d="M166 348q0 110 65 344q37 133 79.5 234.5t101.5 189t130.5 143.5t167 87.5t212.5 31.5q163 0 282 -99.5t119 -262.5q0 -117 -66 -342q-39 -136 -78 -233t-96 -187.5t-126.5 -145.5t-167 -87.5t-220.5 -32.5q-192 0 -297.5 95t-105.5 265zM500 399q0 -42 14 -61 q28 -49 115 -49q40 0 75 12.5t60.5 31t49 52t39 62.5t32.5 77t26.5 81t24.5 87q53 192 53 271q0 36 -16 65q-28 49 -111 49q-95 0 -160 -59q-43 -34 -73 -104t-74 -240q-55 -213 -55 -275zM628 1430q32 108 122.5 186t183.5 78q30 0 58.5 -7.5t39.5 -13.5t35 -20 q4 -2 11.5 -6.5t12.5 -7t12 -4.5t13 -2q9 0 21 17t18 40h231q-32 -107 -122.5 -184.5t-182.5 -77.5q-13 0 -24.5 1t-23 4t-19.5 5t-19.5 7t-16 7t-16.5 8l-14 7h2q-40 22 -51 22q-18 0 -39 -59h-232z" />
<glyph unicode="&#xd6;" horiz-adv-x="1167" d="M166 348q0 110 65 344q37 133 79.5 234.5t101.5 189t130.5 143.5t167 87.5t212.5 31.5q163 0 282 -99.5t119 -262.5q0 -117 -66 -342q-39 -136 -78 -233t-96 -187.5t-126.5 -145.5t-167 -87.5t-220.5 -32.5q-192 0 -297.5 95t-105.5 265zM500 399q0 -42 14 -61 q28 -49 115 -49q40 0 75 12.5t60.5 31t49 52t39 62.5t32.5 77t26.5 81t24.5 87q53 192 53 271q0 36 -16 65q-28 49 -111 49q-95 0 -160 -59q-43 -34 -73 -104t-74 -240q-55 -213 -55 -275zM653 1432l80 260h295l-35 -109q-20 -62 -82.5 -106.5t-132.5 -44.5h-125zM1006 1432 l80 260h290l-28 -109q-19 -64 -83 -107.5t-136 -43.5h-123z" />
<glyph unicode="&#xd8;" horiz-adv-x="1167" d="M14 2l183 199q-31 58 -31 147q0 107 67 344q53 195 112 320.5t165 216.5q198 149 412 149q170 0 274 -88q60 48 128.5 62t174.5 14l-199 -217q23 -56 23 -131q0 -91 -56 -316q-5 -19 -7 -28q-16 -60 -23 -85t-22.5 -75.5t-25.5 -75.5t-27.5 -66t-34 -66t-39.5 -57.5 t-50 -59t-59 -52.5q-195 -149 -410 -149q-163 0 -266 80q-55 -39 -123.5 -52.5t-165.5 -13.5zM526 563l435 479q-27 35 -99 35q-87 0 -160 -59q-42 -36 -72 -105t-75 -239q-15 -54 -23 -77q-3 -7 -5 -21q0 -8 -1 -13zM539 313q28 -24 90 -24q93 0 155 59q44 36 74 102.5 t78 241.5q14 52 18 56q1 1 1 3q0 8 1 19zM961 1042l22 21l2 -51l-10 12q-8 12 -14 18z" />
<glyph unicode="&#xd9;" horiz-adv-x="1234" d="M197 352q0 74 18 137l162 594q31 114 149 198.5t250 84.5l-237 -887q-9 -35 -9 -71q0 -58 35 -88.5t99 -30.5q92 0 161 55.5t95 153.5l157 585q31 114 149 198.5t249 84.5l-240 -895q-58 -215 -237 -349t-394 -134q-184 0 -295.5 99t-111.5 265zM641 1550q42 74 121 126 t149 34l311 -68l-106 -196z" />
<glyph unicode="&#xda;" horiz-adv-x="1234" d="M197 352q0 74 18 137l162 594q31 114 149 198.5t250 84.5l-237 -887q-9 -35 -9 -71q0 -58 35 -88.5t99 -30.5q92 0 161 55.5t95 153.5l157 585q31 114 149 198.5t249 84.5l-240 -895q-58 -215 -237 -349t-394 -134q-184 0 -295.5 99t-111.5 265zM768 1440l10 204l332 64 q85 16 137.5 -38t47.5 -130z" />
<glyph unicode="&#xdb;" horiz-adv-x="1234" d="M197 352q0 74 18 137l162 594q31 114 149 198.5t250 84.5l-237 -887q-9 -35 -9 -71q0 -58 35 -88.5t99 -30.5q92 0 161 55.5t95 153.5l157 585q31 114 149 198.5t249 84.5l-240 -895q-58 -215 -237 -349t-394 -134q-184 0 -295.5 99t-111.5 265zM631 1595l401 97 l357 -103q-39 -73 -111.5 -123.5t-138.5 -31.5l-156 47l-182 -47q-84 -19 -129.5 32.5t-40.5 128.5z" />
<glyph unicode="&#xdc;" horiz-adv-x="1234" d="M197 352q0 74 18 137l162 594q31 114 149 198.5t250 84.5l-237 -887q-9 -35 -9 -71q0 -58 35 -88.5t99 -30.5q92 0 161 55.5t95 153.5l157 585q31 114 149 198.5t249 84.5l-240 -895q-58 -215 -237 -349t-394 -134q-184 0 -295.5 99t-111.5 265zM713 1432l80 260h294 l-34 -109q-20 -62 -82.5 -106.5t-132.5 -44.5h-125zM1065 1432l80 260h291l-29 -109q-19 -64 -83 -107.5t-136 -43.5h-123z" />
<glyph unicode="&#xdd;" horiz-adv-x="1028" d="M311 0l152 565l-119 502q-10 38 -10 68q0 99 79 165t208 66l92 -469l342 469h360l-633 -817l-147 -549h-324zM602 1477l10 204l332 64q85 16 137.5 -38t47.5 -130z" />
<glyph unicode="&#xde;" horiz-adv-x="1142" d="M80 0l291 1083q31 115 150 199t253 84l-63 -233q23 4 65 4h137q177 0 274 -92.5t97 -239.5q0 -64 -18 -119q-53 -180 -210 -305t-360 -125h-223l-65 -256h-328zM555 557h188q74 0 128 40.5t75 107.5q4 28 4 43q0 42 -28.5 65t-81.5 23h-125q-33 0 -66 -25t-43 -61z" />
<glyph unicode="&#xdf;" horiz-adv-x="1075" d="M82 0l197 725h-97l66 248h94q5 13 10 45q18 63 58 120t102 105.5t154 77.5t202 29q171 0 264 -73t93 -187q0 -30 -13 -74q-42 -150 -143 -223q35 -52 35 -127q0 -67 -39 -209q-35 -120 -82 -201.5t-121 -142.5q-152 -125 -391 -125q22 74 46 126.5t50.5 82t43 42 t40.5 25.5l21 15q35 28 54.5 72t39.5 122q25 115 25 139q0 36 -15 54q-14 26 -67 26l-33 45q11 44 27.5 76.5t42 54.5t40 31.5t45.5 26.5q21 10 32.5 17t24 21.5t17.5 32.5q12 41 -11.5 61.5t-82.5 20.5q-61 0 -106.5 -29.5t-53.5 -62.5l-264 -987h-305z" />
<glyph unicode="&#xe0;" horiz-adv-x="960" d="M104 240q0 158 111 263t317 105h195q10 31 10 51q0 58 -106 58h-338q31 116 128.5 192t242.5 76q182 0 281 -74.5t99 -210.5q0 -49 -14 -104l-47 -172q-65 -234 -195.5 -335t-359.5 -101q-147 0 -235.5 67t-88.5 185zM406 303q0 -51 73 -51q75 0 122.5 32.5t68.5 106.5 h-140q-124 0 -124 -88zM440 1204q42 74 121.5 126t149.5 34l311 -68l-107 -196z" />
<glyph unicode="&#xe1;" horiz-adv-x="960" d="M104 240q0 158 111 263t317 105h195q10 31 10 51q0 58 -106 58h-338q31 116 128.5 192t242.5 76q182 0 281 -74.5t99 -210.5q0 -49 -14 -104l-47 -172q-65 -234 -195.5 -335t-359.5 -101q-147 0 -235.5 67t-88.5 185zM406 303q0 -51 73 -51q75 0 122.5 32.5t68.5 106.5 h-140q-124 0 -124 -88zM467 1094l10 204l332 64q85 16 137.5 -38t47.5 -130z" />
<glyph unicode="&#xe2;" horiz-adv-x="960" d="M104 240q0 158 111 263t317 105h195q10 31 10 51q0 58 -106 58h-338q31 116 128.5 192t242.5 76q182 0 281 -74.5t99 -210.5q0 -49 -14 -104l-47 -172q-65 -234 -195.5 -335t-359.5 -101q-147 0 -235.5 67t-88.5 185zM404 1270l401 96l356 -102q-39 -74 -111 -124.5 t-138 -31.5l-156 47l-182 -47q-84 -19 -129.5 32.5t-40.5 129.5zM406 303q0 -51 73 -51q75 0 122.5 32.5t68.5 106.5h-140q-124 0 -124 -88z" />
<glyph unicode="&#xe3;" horiz-adv-x="960" d="M104 240q0 158 111 263t317 105h195q10 31 10 51q0 58 -106 58h-338q31 116 128.5 192t242.5 76q182 0 281 -74.5t99 -210.5q0 -49 -14 -104l-47 -172q-65 -234 -195.5 -335t-359.5 -101q-147 0 -235.5 67t-88.5 185zM406 303q0 -51 73 -51q75 0 122.5 32.5t68.5 106.5 h-140q-124 0 -124 -88zM436 1106q32 108 122.5 186t183.5 78q30 0 58.5 -7.5t39.5 -13.5t35 -20q4 -2 11.5 -6.5t12.5 -7t12 -4.5t13 -2q9 0 21 17t18 40h231q-32 -107 -122.5 -184.5t-182.5 -77.5q-13 0 -24.5 1t-23 4t-19.5 5t-19.5 7t-16 7t-16.5 8l-14 7h2 q-40 22 -51 22q-18 0 -39 -59h-232z" />
<glyph unicode="&#xe4;" horiz-adv-x="960" d="M104 240q0 158 111 263t317 105h195q10 31 10 51q0 58 -106 58h-338q31 116 128.5 192t242.5 76q182 0 281 -74.5t99 -210.5q0 -49 -14 -104l-47 -172q-65 -234 -195.5 -335t-359.5 -101q-147 0 -235.5 67t-88.5 185zM406 303q0 -51 73 -51q75 0 122.5 32.5t68.5 106.5 h-140q-124 0 -124 -88zM432 1106l80 260h295l-35 -109q-20 -62 -82.5 -106.5t-132.5 -44.5h-125zM784 1106l80 260h291l-29 -109q-19 -64 -83 -107.5t-136 -43.5h-123z" />
<glyph unicode="&#xe5;" horiz-adv-x="960" d="M104 240q0 158 111 263t317 105h195q10 31 10 51q0 58 -106 58h-338q31 116 128.5 192t242.5 76q182 0 281 -74.5t99 -210.5q0 -49 -14 -104l-47 -172q-65 -234 -195.5 -335t-359.5 -101q-147 0 -235.5 67t-88.5 185zM406 303q0 -51 73 -51q75 0 122.5 32.5t68.5 106.5 h-140q-124 0 -124 -88zM659 1307q23 78 100 133t163 55q94 0 143.5 -60t24.5 -143q-23 -78 -100.5 -132t-164.5 -54q-95 0 -143.5 58t-22.5 143zM834 1292q-3 -10 3 -18t17 -8q18 0 35.5 12.5t25.5 28.5q0 9 -6.5 17.5t-15.5 8.5q-19 0 -36 -12t-23 -29z" />
<glyph unicode="&#xe6;" horiz-adv-x="1568" d="M113 240q0 76 28 144t81 122t137.5 85.5t189.5 31.5h192l4 18q9 41 9 45q0 57 -107 57h-336q30 116 127 192.5t244 76.5q207 0 301 -94q140 94 301 94q166 0 253 -89.5t87 -240.5q0 -82 -22 -160l-37 -131h-578v-29q0 -49 30 -76.5t91 -27.5q26 0 52.5 21.5t45.5 58.5 h307q-172 -350 -460 -350q-179 0 -277 88q-127 -88 -338 -88q-147 0 -236 67t-89 185zM414 289q0 -37 75 -37q76 0 124 32.5t69 106.5h-141q-55 0 -91 -28t-36 -74zM1053 623h270q4 20 4 28q0 42 -23.5 68t-72.5 26q-117 0 -178 -122z" />
<glyph unicode="&#xe7;" horiz-adv-x="858" d="M137 315q0 101 24.5 198.5t74.5 182.5t119 149.5t163.5 102t202.5 37.5q90 0 159 -30t108.5 -82.5t55.5 -120t7 -144.5h-306q-3 46 -24.5 72.5t-56.5 26.5q-92 0 -142 -89q-32 -56 -52.5 -130t-20.5 -126q0 -51 18 -72.5t57 -21.5q35 0 74 18.5t64 53.5h317 q-46 -94 -109 -164t-131 -110t-134.5 -59t-131.5 -19q-53 0 -99.5 9t-91 32t-76 59t-50.5 94t-19 133zM248 -260q0 53 47 94h-2l201 195q54 -18 84 -49.5t30 -67.5q0 -49 -51 -94h2l-199 -193q-112 40 -112 115z" />
<glyph unicode="&#xe8;" horiz-adv-x="995" d="M143 313q0 79 31 197q63 234 212 354.5t349 120.5q166 0 253 -89.5t87 -240.5q0 -81 -22 -159l-25 -97h-579q-7 -28 -7 -37q0 -51 22.5 -77.5t80.5 -26.5q41 0 84 22.5t61 57.5h307q-62 -125 -146.5 -206t-167.5 -112.5t-173 -31.5q-61 0 -113 9.5t-100 32.5t-81.5 59.5 t-53 93.5t-19.5 130zM416 1204q42 74 121 126t149 34l311 -68l-106 -196zM504 596h270q4 12 4 29q0 42 -23.5 68t-72.5 26q-116 0 -178 -123z" />
<glyph unicode="&#xe9;" horiz-adv-x="995" d="M143 313q0 79 31 197q63 234 212 354.5t349 120.5q166 0 253 -89.5t87 -240.5q0 -81 -22 -159l-25 -97h-579q-7 -28 -7 -37q0 -51 22.5 -77.5t80.5 -26.5q41 0 84 22.5t61 57.5h307q-62 -125 -146.5 -206t-167.5 -112.5t-173 -31.5q-61 0 -113 9.5t-100 32.5t-81.5 59.5 t-53 93.5t-19.5 130zM504 596h270q4 12 4 29q0 42 -23.5 68t-72.5 26q-116 0 -178 -123zM538 1094l10 204l332 64q85 16 137.5 -38t47.5 -130z" />
<glyph unicode="&#xea;" horiz-adv-x="995" d="M143 313q0 79 31 197q63 234 212 354.5t349 120.5q166 0 253 -89.5t87 -240.5q0 -81 -22 -159l-25 -97h-579q-7 -28 -7 -37q0 -51 22.5 -77.5t80.5 -26.5q41 0 84 22.5t61 57.5h307q-62 -125 -146.5 -206t-167.5 -112.5t-173 -31.5q-61 0 -113 9.5t-100 32.5t-81.5 59.5 t-53 93.5t-19.5 130zM422 1270l401 96l356 -102q-39 -74 -111 -124.5t-138 -31.5l-156 47l-182 -47q-84 -19 -129.5 32.5t-40.5 129.5zM504 596h270q4 12 4 29q0 42 -23.5 68t-72.5 26q-116 0 -178 -123z" />
<glyph unicode="&#xeb;" horiz-adv-x="995" d="M143 313q0 79 31 197q63 234 212 354.5t349 120.5q166 0 253 -89.5t87 -240.5q0 -81 -22 -159l-25 -97h-579q-7 -28 -7 -37q0 -51 22.5 -77.5t80.5 -26.5q41 0 84 22.5t61 57.5h307q-62 -125 -146.5 -206t-167.5 -112.5t-173 -31.5q-61 0 -113 9.5t-100 32.5t-81.5 59.5 t-53 93.5t-19.5 130zM449 1106l79 260h295l-35 -109q-20 -62 -82.5 -106.5t-132.5 -44.5h-124zM504 596h270q4 12 4 29q0 42 -23.5 68t-72.5 26q-116 0 -178 -123zM801 1106l80 260h290l-28 -109q-19 -64 -83 -107.5t-136 -43.5h-123z" />
<glyph unicode="&#xec;" horiz-adv-x="440" d="M55 0l199 739q26 107 136.5 183.5t236.5 76.5l-267 -999h-305zM240 1204q42 74 121 126t149 34l311 -68l-106 -196z" />
<glyph unicode="&#xed;" horiz-adv-x="440" d="M55 0l199 739q26 107 136.5 183.5t236.5 76.5l-267 -999h-305zM315 1094l10 204l332 64q85 16 137.5 -38t47.5 -130z" />
<glyph unicode="&#xee;" horiz-adv-x="440" d="M55 0l199 739q26 107 136.5 183.5t236.5 76.5l-267 -999h-305zM228 1274l401 96l356 -102q-39 -74 -111 -124.5t-138 -31.5l-156 47l-182 -47q-84 -19 -129.5 32.5t-40.5 129.5z" />
<glyph unicode="&#xef;" horiz-adv-x="440" d="M55 0l199 739q26 107 136.5 183.5t236.5 76.5l-267 -999h-305zM260 1106l80 260h295l-35 -109q-20 -62 -82.5 -106.5t-132.5 -44.5h-125zM612 1106l80 260h291l-29 -109q-19 -64 -83 -107.5t-136 -43.5h-123z" />
<glyph unicode="&#xf0;" d="M133 287q0 68 33 186q35 132 77.5 203.5t125.5 138.5q59 47 86 62q-10 78 28.5 151.5t104.5 104.5l-66 206q219 0 324 -112l209 76q10 -76 -23.5 -148t-93.5 -104l98 -318q13 -40 13 -94q0 -80 -31 -182q-35 -121 -81.5 -202t-121.5 -142q-148 -125 -344 -125 q-101 0 -173 37.5t-112 93.5q-53 75 -53 168zM444 348q0 -30 17 -55v2q17 -27 67 -27q46 0 97 35q40 29 57.5 63t36.5 107v2q20 75 20 105q0 29 -18 53q-17 26 -68 26q-55 0 -98 -34q-37 -27 -53.5 -61.5t-36.5 -106.5q-21 -79 -21 -109z" />
<glyph unicode="&#xf1;" horiz-adv-x="1021" d="M63 0l144 535q60 228 188 339t348 111q148 0 236 -89t88 -239q0 -68 -20 -141l-140 -516h-303l150 563q12 50 12 72q0 70 -80 70q-66 0 -109 -43.5t-63 -116.5l-145 -545h-306zM467 1106q32 108 122.5 186t183.5 78q30 0 58.5 -7.5t39.5 -13.5t35 -20q4 -2 11.5 -6.5 t12.5 -7t12 -4.5t13 -2q9 0 21 17t18 40h231q-32 -107 -122.5 -184.5t-182.5 -77.5q-13 0 -24.5 1t-23 4t-19.5 5t-19.5 7t-16 7t-16.5 8l-14 7h2q-40 22 -51 22q-18 0 -39 -59h-232z" />
<glyph unicode="&#xf2;" d="M137 289q0 252 148 465q164 231 438 231q162 0 249 -75.5t87 -219.5q0 -79 -33 -198q-26 -101 -71 -187.5t-111.5 -159.5t-161.5 -115t-209 -42q-137 0 -236.5 82t-99.5 219zM379 1204q42 74 121 126t149 34l312 -68l-107 -196zM449 348q0 -80 79 -80q75 0 113.5 46.5 t71.5 148.5q37 109 37 162q0 38 -21 59t-61 21q-70 0 -117 -58q-49 -63 -75.5 -145.5t-26.5 -153.5z" />
<glyph unicode="&#xf3;" d="M137 289q0 252 148 465q164 231 438 231q162 0 249 -75.5t87 -219.5q0 -79 -33 -198q-26 -101 -71 -187.5t-111.5 -159.5t-161.5 -115t-209 -42q-137 0 -236.5 82t-99.5 219zM449 348q0 -80 79 -80q75 0 113.5 46.5t71.5 148.5q37 109 37 162q0 38 -21 59t-61 21 q-70 0 -117 -58q-49 -63 -75.5 -145.5t-26.5 -153.5zM563 1094l10 204l332 64q85 16 137.5 -38t47.5 -130z" />
<glyph unicode="&#xf4;" d="M137 289q0 252 148 465q164 231 438 231q162 0 249 -75.5t87 -219.5q0 -79 -33 -198q-26 -101 -71 -187.5t-111.5 -159.5t-161.5 -115t-209 -42q-137 0 -236.5 82t-99.5 219zM414 1270l401 96l356 -102q-39 -74 -111 -124.5t-138 -31.5l-156 47l-182 -47 q-84 -19 -129.5 32.5t-40.5 129.5zM449 348q0 -80 79 -80q75 0 113.5 46.5t71.5 148.5q37 109 37 162q0 38 -21 59t-61 21q-70 0 -117 -58q-49 -63 -75.5 -145.5t-26.5 -153.5z" />
<glyph unicode="&#xf5;" d="M137 289q0 252 148 465q164 231 438 231q162 0 249 -75.5t87 -219.5q0 -79 -33 -198q-26 -101 -71 -187.5t-111.5 -159.5t-161.5 -115t-209 -42q-137 0 -236.5 82t-99.5 219zM446 1106q32 108 122.5 186t183.5 78q30 0 58.5 -7.5t39.5 -13.5t35 -20q4 -2 11.5 -6.5 t12.5 -7t12 -4.5t13 -2q9 0 21 17t18 40h231q-32 -107 -122.5 -184.5t-182.5 -77.5q-13 0 -24.5 1t-23 4t-19.5 5t-19.5 7t-16 7t-16.5 8l-14 7h2q-40 22 -51 22q-18 0 -39 -59h-232zM449 348q0 -80 79 -80q75 0 113.5 46.5t71.5 148.5q37 109 37 162q0 38 -21 59t-61 21 q-70 0 -117 -58q-49 -63 -75.5 -145.5t-26.5 -153.5z" />
<glyph unicode="&#xf6;" d="M137 289q0 252 148 465q164 231 438 231q162 0 249 -75.5t87 -219.5q0 -79 -33 -198q-26 -101 -71 -187.5t-111.5 -159.5t-161.5 -115t-209 -42q-137 0 -236.5 82t-99.5 219zM440 1106l80 260h295l-35 -109q-20 -62 -82.5 -106.5t-132.5 -44.5h-125zM449 348 q0 -80 79 -80q75 0 113.5 46.5t71.5 148.5q37 109 37 162q0 38 -21 59t-61 21q-70 0 -117 -58q-49 -63 -75.5 -145.5t-26.5 -153.5zM793 1106l79 260h291l-28 -109q-18 -64 -83 -107.5t-137 -43.5h-122z" />
<glyph unicode="&#xf7;" horiz-adv-x="1032" d="M86 389l82 291h1028l-80 -291h-1030zM352 0l88 336h338l-35 -139q-23 -82 -95.5 -139.5t-155.5 -57.5h-140zM551 735l90 334h336l-35 -137q-22 -83 -95 -140t-157 -57h-139z" />
<glyph unicode="&#xf8;" d="M-4 -4l164 168q-23 45 -23 125q0 79 37 221q39 141 85.5 228t127.5 151v-2q147 125 340 125q124 0 217 -60q52 34 116 46t159 12l-177 -179q23 -75 23 -120q0 -82 -39 -219q-35 -137 -82.5 -225.5t-128.5 -153.5q-148 -125 -342 -125q-128 0 -217 61q-90 -53 -260 -53z M471 477l240 248q-12 6 -39 6q-44 0 -97 -35q-55 -52 -102 -204q-2 -6 -2 -13v-2zM492 272q10 -4 36 -4q48 0 99 35q25 18 44.5 53t29.5 64t26 86v6zM727 504v2v4q4 14 5 14z" />
<glyph unicode="&#xf9;" horiz-adv-x="1021" d="M166 299q0 77 22 158l70 254q29 103 141.5 182.5t233.5 79.5l-152 -563q-10 -45 -10 -72q0 -70 78 -70q64 0 108 44t64 116l78 283q30 106 145 184t230 78l-146 -535q-55 -204 -203 -327t-331 -123q-155 0 -241.5 81.5t-86.5 229.5zM434 1204q42 74 121.5 126t149.5 34 l311 -68l-107 -196z" />
<glyph unicode="&#xfa;" horiz-adv-x="1021" d="M166 299q0 77 22 158l70 254q29 103 141.5 182.5t233.5 79.5l-152 -563q-10 -45 -10 -72q0 -70 78 -70q64 0 108 44t64 116l78 283q30 106 145 184t230 78l-146 -535q-55 -204 -203 -327t-331 -123q-155 0 -241.5 81.5t-86.5 229.5zM604 1094l10 204l332 64 q85 16 137.5 -38t47.5 -130z" />
<glyph unicode="&#xfb;" horiz-adv-x="1021" d="M166 299q0 77 22 158l70 254q29 103 141.5 182.5t233.5 79.5l-152 -563q-10 -45 -10 -72q0 -70 78 -70q64 0 108 44t64 116l78 283q30 106 145 184t230 78l-146 -535q-55 -204 -203 -327t-331 -123q-155 0 -241.5 81.5t-86.5 229.5zM434 1270l401 96l356 -102 q-39 -74 -111 -124.5t-138 -31.5l-156 47l-182 -47q-84 -19 -129.5 32.5t-40.5 129.5z" />
<glyph unicode="&#xfc;" horiz-adv-x="1021" d="M166 299q0 77 22 158l70 254q29 103 141.5 182.5t233.5 79.5l-152 -563q-10 -45 -10 -72q0 -70 78 -70q64 0 108 44t64 116l78 283q30 106 145 184t230 78l-146 -535q-55 -204 -203 -327t-331 -123q-155 0 -241.5 81.5t-86.5 229.5zM463 1106l80 260h295l-35 -109 q-20 -62 -82.5 -106.5t-132.5 -44.5h-125zM815 1106l80 260h291l-29 -109q-19 -64 -83 -107.5t-136 -43.5h-123z" />
<glyph unicode="&#xfd;" horiz-adv-x="905" d="M-31 -340q15 62 31.5 103t38.5 66t35.5 35t42.5 27q68 42 112 117l62 105l-58 587q-9 110 79 191.5t212 81.5l33 -467l277 467h325l-704 -1108q-65 -101 -149 -153t-202 -52h-135zM438 1094l11 204l331 64q85 16 137.5 -38t47.5 -130z" />
<glyph unicode="&#xfe;" horiz-adv-x="999" d="M-29 -340l379 1419q28 103 141 181.5t234 78.5l-98 -364q46 12 108 12q101 0 175 -37.5t114 -93.5q49 -74 49 -174q0 -82 -31 -190q-21 -81 -45.5 -147.5t-65 -135.5t-90 -115.5t-122 -76t-158.5 -29.5q-123 0 -188 39l-99 -367h-303zM471 344q0 -76 78 -76q79 0 121 62 t73 180q21 80 21 123q0 36 -19.5 55t-66.5 19q-40 0 -68.5 -14t-49 -45t-33.5 -65t-29 -91q-27 -102 -27 -148z" />
<glyph unicode="&#xff;" horiz-adv-x="905" d="M-31 -340q15 62 31.5 103t38.5 66t35.5 35t42.5 27q68 42 112 117l62 105l-58 587q-9 110 79 191.5t212 81.5l33 -467l277 467h325l-704 -1108q-65 -101 -149 -153t-202 -52h-135zM405 1106l80 260h295l-35 -109q-20 -62 -82.5 -106.5t-132.5 -44.5h-125zM758 1106 l80 260h290l-28 -109q-19 -64 -83 -107.5t-136 -43.5h-123z" />
<glyph unicode="&#x152;" horiz-adv-x="1759" d="M176 348q0 100 68 344q53 198 110.5 321.5t165.5 215.5q198 149 410 149q196 0 299 -106q139 94 289 94h534q-32 -123 -130 -210t-204 -87h-260q-34 0 -65 -26t-43 -62l-39 -145h510q-32 -122 -130 -209.5t-202 -87.5h-258l-64 -242h600q-34 -122 -130.5 -209.5 t-200.5 -87.5h-674l4 18q-98 -30 -186 -30q-218 0 -342 157q-62 85 -62 203zM508 399q0 -35 16 -61q28 -49 115 -49q94 0 156 59q43 35 70.5 92.5t64.5 198.5l31 104q38 153 38 218q0 38 -16 67q-28 49 -113 49q-92 0 -157 -59q-43 -34 -74.5 -105.5t-75.5 -238.5 q-55 -225 -55 -275z" />
<glyph unicode="&#x153;" horiz-adv-x="1595" d="M147 289q0 79 37 221q28 105 73.5 192t112 158.5t161 111.5t208.5 40q84 0 151.5 -29t110.5 -72q134 101 308 101q166 0 255 -90t89 -240q0 -58 -25 -160l-35 -131h-579q-2 -8 -2 -29q0 -49 30.5 -76.5t90.5 -27.5q57 0 98 80h307q-170 -350 -461 -350q-188 0 -284 96 q-141 -96 -310 -96q-72 0 -130.5 18.5t-96 48t-63 69.5t-36 81t-10.5 84zM459 348q0 -39 18 -59.5t62 -20.5t76.5 18t55.5 54.5t37.5 74t30.5 95.5q27 98 27 141q0 80 -84 80q-54 0 -98.5 -41t-70.5 -102.5t-40 -124.5t-14 -115zM1077 623h275q0 27 -2.5 45.5t-11.5 38 t-29.5 29t-51.5 9.5q-119 0 -180 -122z" />
<glyph unicode="&#x178;" horiz-adv-x="1028" d="M311 0l152 565l-119 502q-10 38 -10 68q0 99 79 165t208 66l92 -469l342 469h360l-633 -817l-147 -549h-324zM623 1430l79 260h295l-34 -109q-20 -62 -82.5 -106.5t-132.5 -44.5h-125zM975 1430l80 260h291l-29 -109q-19 -64 -83 -107.5t-136 -43.5h-123z" />
<glyph unicode="&#x2c6;" horiz-adv-x="727" d="M328 1270l401 96l356 -102q-39 -74 -111 -124.5t-138 -31.5l-156 47l-182 -47q-84 -19 -129.5 32.5t-40.5 129.5z" />
<glyph unicode="&#x2dc;" horiz-adv-x="651" d="M317 1106q32 108 122.5 186t183.5 78q30 0 58.5 -7.5t39.5 -13.5t35 -20q4 -2 11.5 -6.5t12.5 -7t12 -4.5t13 -2q9 0 21 17t18 40h231q-32 -107 -122.5 -184.5t-182.5 -77.5q-13 0 -24.5 1t-23 4t-19.5 5t-19.5 7t-16 7t-16.5 8l-14 7h2q-40 22 -51 22q-18 0 -39 -59 h-232z" />
<glyph unicode="&#x2000;" horiz-adv-x="913" />
<glyph unicode="&#x2001;" horiz-adv-x="1827" />
<glyph unicode="&#x2002;" horiz-adv-x="913" />
<glyph unicode="&#x2003;" horiz-adv-x="1827" />
<glyph unicode="&#x2004;" horiz-adv-x="609" />
<glyph unicode="&#x2005;" horiz-adv-x="456" />
<glyph unicode="&#x2006;" horiz-adv-x="304" />
<glyph unicode="&#x2007;" horiz-adv-x="304" />
<glyph unicode="&#x2008;" horiz-adv-x="228" />
<glyph unicode="&#x2009;" horiz-adv-x="365" />
<glyph unicode="&#x200a;" horiz-adv-x="101" />
<glyph unicode="&#x2010;" horiz-adv-x="817" d="M170 401l82 287h653l-78 -287h-657z" />
<glyph unicode="&#x2011;" horiz-adv-x="817" d="M170 401l82 287h653l-78 -287h-657z" />
<glyph unicode="&#x2012;" horiz-adv-x="817" d="M170 401l82 287h653l-78 -287h-657z" />
<glyph unicode="&#x2013;" horiz-adv-x="1032" d="M84 401l82 287h1028l-80 -287h-1030z" />
<glyph unicode="&#x2014;" horiz-adv-x="1531" d="M94 401l78 287h1493l-78 -287h-1493z" />
<glyph unicode="&#x2018;" horiz-adv-x="368" d="M262 852l70 258q28 104 133 165.5t217 61.5l-129 -485h-291z" />
<glyph unicode="&#x2019;" horiz-adv-x="368" d="M260 854l131 485h291l-70 -258q-28 -103 -133.5 -165t-218.5 -62z" />
<glyph unicode="&#x201a;" horiz-adv-x="368" d="M-41 -238l129 488h289l-68 -260q-28 -103 -133.5 -165.5t-216.5 -62.5z" />
<glyph unicode="&#x201c;" horiz-adv-x="724" d="M270 852l68 258q28 104 133 165.5t217 61.5l-129 -485h-289zM600 852l70 258q28 104 133 165.5t217 61.5l-129 -485h-291z" />
<glyph unicode="&#x201d;" horiz-adv-x="724" d="M268 854l129 485h289l-65 -258q-20 -69 -79 -122.5t-131 -79t-143 -25.5zM598 854l131 485h289l-68 -258q-28 -103 -133.5 -165t-218.5 -62z" />
<glyph unicode="&#x201e;" horiz-adv-x="724" d="M-35 -238l129 488h289l-68 -260q-28 -103 -133.5 -165.5t-216.5 -62.5zM295 -238l131 488h287l-66 -260q-28 -103 -133.5 -165.5t-218.5 -62.5z" />
<glyph unicode="&#x2022;" horiz-adv-x="567" d="M184 541q0 33 11 65v-2q25 94 110 162t178 68q83 0 137 -55t54 -134q0 -30 -10 -59v2q-25 -94 -110 -162t-179 -68q-85 0 -138 52t-53 131z" />
<glyph unicode="&#x2026;" horiz-adv-x="1398" d="M43 0l88 336h338l-37 -139q-20 -82 -94.5 -139.5t-157.5 -57.5h-137zM498 0l88 336h338l-37 -139q-22 -82 -95.5 -139.5t-156.5 -57.5h-137zM952 0l88 336h338l-37 -139q-22 -82 -95 -139.5t-156 -57.5h-138z" />
<glyph unicode="&#x202f;" horiz-adv-x="365" />
<glyph unicode="&#x2039;" horiz-adv-x="413" d="M168 520l256 457q79 -18 122 -75t23 -130l-6 -14q-4 -19 -8 -23v2l-135 -233l12 -234q0 -16 -6 -37v7v-4q-16 -66 -86.5 -117.5t-159.5 -75.5z" />
<glyph unicode="&#x203a;" horiz-adv-x="413" d="M92 246q8 30 14 43l136 233l-13 230q0 1 1 8t1 8l9 27q17 66 86 117t157 71l13 -477l-258 -461q-75 24 -117 78.5t-29 122.5z" />
<glyph unicode="&#x205f;" horiz-adv-x="456" />
<glyph unicode="&#x20ac;" horiz-adv-x="1122" d="M66 418q18 72 60.5 127.5t94.5 77.5l12 57h-98q20 76 63.5 132.5t96.5 76.5q31 95 86 180t132.5 155.5t183 112t223.5 41.5q188 0 296.5 -102t108.5 -299h-319q-4 47 -45 73.5t-97 26.5q-70 0 -136 -50t-101 -122h389q-26 -94 -95.5 -159.5t-144.5 -65.5h-221l-10 -37 h278q-26 -93 -97 -159t-144 -66h-84q-2 -8 -2 -25q0 -37 16 -63q27 -47 111 -47q147 0 241 180h328q-100 -230 -269.5 -352.5t-361.5 -122.5q-106 0 -192 41t-140 112q-61 80 -61 205q0 52 2 72h-104z" />
<glyph unicode="&#x2122;" horiz-adv-x="1441" d="M307 1116q25 92 88.5 154.5t130.5 62.5h451q-22 -87 -86 -152t-131 -65h-29q-108 -404 -162 -596h-233l162 596h-191zM727 520l170 637q22 71 98.5 123.5t161.5 52.5l72 -327l127 165q126 162 340 162l-217 -813h-232l72 273q-75 -96 -98 -125h-146l-37 143 q-68 -245 -80 -291h-231z" />
<glyph unicode="&#xe000;" horiz-adv-x="972" d="M0 0v973h973v-973h-973z" />
</font>
</defs>
</svg>
